<svg width="328" height="12" viewBox="0 0 328 12" fill="none" xmlns="http://www.w3.org/2000/svg">
<path d="M306.333 2.33333C305.597 2.33333 305 2.93028 305 3.66666V8.33333C305 9.06971 305.597 9.66666 306.333 9.66666H321.667C322.403 9.66666 323 9.06971 323 8.33333V3.66666C323 2.93028 322.403 2.33333 321.667 2.33333H306.333Z" fill="black"/>
<path fill-rule="evenodd" clip-rule="evenodd" d="M305.667 0.333328C304.194 0.333328 303 1.52723 303 2.99999V8.99999C303 10.4728 304.194 11.6667 305.667 11.6667H322.333C323.806 11.6667 325 10.4728 325 9V2.99999C325 1.52724 323.806 0.333328 322.333 0.333328H305.667ZM322.333 1.33333H305.667C304.746 1.33333 304 2.07952 304 2.99999V8.99999C304 9.92047 304.746 10.6667 305.667 10.6667H322.333C323.254 10.6667 324 9.92047 324 9V2.99999C324 2.07952 323.254 1.33333 322.333 1.33333Z" fill="black"/>
<path d="M326 8C326.805 7.66122 327.328 6.87313 327.328 6C327.328 5.12687 326.805 4.33878 326 4V8Z" fill="black"/>
<path fill-rule="evenodd" clip-rule="evenodd" d="M290.33 2.608C292.546 2.6081 294.677 3.45954 296.283 4.98633C296.404 5.10421 296.598 5.10272 296.717 4.983L297.873 3.81633C297.933 3.75561 297.967 3.67336 297.966 3.58778C297.966 3.5022 297.931 3.42035 297.87 3.36033C293.655 -0.679214 287.005 -0.679214 282.79 3.36033C282.729 3.4203 282.694 3.50213 282.694 3.58771C282.693 3.67329 282.727 3.75557 282.787 3.81633L283.943 4.983C284.062 5.1029 284.256 5.10439 284.377 4.98633C285.983 3.45943 288.114 2.60799 290.33 2.608ZM290.33 6.40367C291.548 6.40359 292.722 6.85612 293.624 7.67333C293.746 7.78931 293.939 7.7868 294.058 7.66767L295.212 6.501C295.273 6.43981 295.307 6.35679 295.306 6.27052C295.305 6.18426 295.27 6.10195 295.208 6.042C292.46 3.48562 288.204 3.48562 285.455 6.042C285.393 6.10195 285.358 6.1843 285.357 6.27059C285.356 6.35689 285.39 6.43989 285.451 6.501L286.605 7.66767C286.724 7.7868 286.917 7.78931 287.039 7.67333C287.941 6.85666 289.114 6.40417 290.33 6.40367ZM292.643 8.95749C292.645 9.04399 292.611 9.12739 292.549 9.188L290.552 11.2037C290.494 11.2629 290.414 11.2962 290.33 11.2962C290.247 11.2962 290.167 11.2629 290.109 11.2037L288.111 9.188C288.049 9.12735 288.015 9.04392 288.017 8.95741C288.019 8.87091 288.057 8.78899 288.121 8.731C289.396 7.65212 291.265 7.65212 292.54 8.731C292.604 8.78903 292.642 8.87098 292.643 8.95749Z" fill="black"/>
<path fill-rule="evenodd" clip-rule="evenodd" d="M276.667 0.666748H275.667C275.114 0.666748 274.667 1.11446 274.667 1.66675V10.3334C274.667 10.8857 275.114 11.3334 275.667 11.3334H276.667C277.219 11.3334 277.667 10.8857 277.667 10.3334V1.66675C277.667 1.11446 277.219 0.666748 276.667 0.666748ZM271 3.00008H272C272.552 3.00008 273 3.4478 273 4.00008V10.3334C273 10.8857 272.552 11.3334 272 11.3334H271C270.448 11.3334 270 10.8857 270 10.3334V4.00008C270 3.4478 270.448 3.00008 271 3.00008ZM267.333 5.33341H266.333C265.781 5.33341 265.333 5.78113 265.333 6.33341V10.3334C265.333 10.8857 265.781 11.3334 266.333 11.3334H267.333C267.886 11.3334 268.333 10.8857 268.333 10.3334V6.33341C268.333 5.78113 267.886 5.33341 267.333 5.33341ZM262.667 7.33341H261.667C261.114 7.33341 260.667 7.78113 260.667 8.33341V10.3334C260.667 10.8857 261.114 11.3334 261.667 11.3334H262.667C263.219 11.3334 263.667 10.8857 263.667 10.3334V8.33341C263.667 7.78113 263.219 7.33341 262.667 7.33341Z" fill="black"/>
<path d="M4.28418 11.2563C6.97217 11.2563 8.56885 9.1543 8.56885 5.5874C8.56885 2.08643 6.86963 0.16748 4.34277 0.16748C2.04297 0.16748 0.416992 1.71289 0.416992 3.87354C0.416992 5.90234 1.88184 7.38184 3.896 7.38184C5.13379 7.38184 6.13721 6.81055 6.63525 5.80713H6.75977C6.73779 8.29004 5.85156 9.71094 4.30615 9.71094C3.39795 9.71094 2.67285 9.21289 2.4458 8.40723H0.563477C0.871094 10.1284 2.35059 11.2563 4.28418 11.2563ZM4.3501 5.92432C3.11963 5.92432 2.27002 5.06006 2.27002 3.81494C2.27002 2.62109 3.16357 1.70557 4.35742 1.70557C5.55127 1.70557 6.44482 2.63574 6.44482 3.85156C6.44482 5.05273 5.57324 5.92432 4.3501 5.92432Z" fill="black"/>
<path d="M11.5867 4.15918C12.2825 4.15918 12.7586 3.67578 12.7586 3.02393C12.7586 2.37207 12.2825 1.88867 11.5867 1.88867C10.8982 1.88867 10.4148 2.37207 10.4148 3.02393C10.4148 3.67578 10.8982 4.15918 11.5867 4.15918ZM11.5867 9.53516C12.2825 9.53516 12.7586 9.04443 12.7586 8.3999C12.7586 7.74805 12.2825 7.26465 11.5867 7.26465C10.8982 7.26465 10.4148 7.74805 10.4148 8.3999C10.4148 9.04443 10.8982 9.53516 11.5867 9.53516Z" fill="black"/>
<path d="M19.7608 11H21.5699V8.97119H22.9981V7.41113H21.5699V0.431152H18.9039C17.4684 2.61377 15.9669 5.04541 14.5973 7.42578V8.97119H19.7608V11ZM16.3478 7.34521C17.3805 5.55078 18.6036 3.59521 19.6876 1.93994H19.7901V7.45508H16.3478V7.34521Z" fill="black"/>
<path d="M27.0268 11H28.9164V0.431152H27.0341L24.2729 2.37207V4.15186L26.9022 2.2915H27.0268V11Z" fill="black"/>
</svg>
